<svg width="26" height="26" viewBox="0 0 26 26" fill="none" xmlns="http://www.w3.org/2000/svg">
<path d="M19.6667 13V18.3333C19.6667 18.687 19.5262 19.0261 19.2761 19.2761C19.0261 19.5262 18.687 19.6667 18.3333 19.6667H13M19.6667 1H22.3333C23.0406 1 23.7189 1.28095 24.219 1.78105C24.719 2.28115 25 2.95942 25 3.66667V6.33333M19.6667 7.66667V6.33333M25 19.6667V22.3333C25 23.0406 24.719 23.7189 24.219 24.219C23.7189 24.719 23.0406 25 22.3333 25H19.6667M1 6.33333V3.66667C1 2.95942 1.28095 2.28115 1.78105 1.78105C2.28115 1.28095 2.95942 1 3.66667 1H6.33333M6.33333 19.6667H6.34667M6.33333 25H3.66667C2.95942 25 2.28115 24.719 1.78105 24.219C1.28095 23.7189 1 23.0406 1 22.3333V19.6667" stroke="black" stroke-width="2" stroke-linecap="round" stroke-linejoin="round"/>
<path d="M11.6666 6.33337H7.66659C6.93021 6.33337 6.33325 6.93033 6.33325 7.66671V11.6667C6.33325 12.4031 6.93021 13 7.66659 13H11.6666C12.403 13 12.9999 12.4031 12.9999 11.6667V7.66671C12.9999 6.93033 12.403 6.33337 11.6666 6.33337Z" stroke="black" stroke-width="2" stroke-linecap="round" stroke-linejoin="round"/>
</svg>
