<svg width="26" height="26" viewBox="0 0 26 26" fill="none" xmlns="http://www.w3.org/2000/svg">
<path d="M24.9907 17.1918C22.7271 18.102 20.2459 18.327 17.8555 17.8386C15.4651 17.3503 13.2709 16.1701 11.5457 14.445C9.82056 12.7198 8.64044 10.5256 8.15209 8.13522C7.66373 5.74482 7.88866 3.26361 8.79893 1C6.11834 2.07973 3.89682 4.05828 2.51518 6.59648C1.13355 9.13468 0.677865 12.0744 1.22624 14.9118C1.77462 17.7492 3.2929 20.3074 5.52082 22.148C7.74874 23.9886 10.5475 24.9969 13.4374 25C15.9226 25.0006 18.3511 24.2573 20.4102 22.8657C22.4692 21.4741 24.0645 19.498 24.9907 17.1918Z" stroke="black" stroke-width="2" stroke-linecap="round" stroke-linejoin="round"/>
</svg>
