<svg width="26" height="26" viewBox="0 0 26 26" fill="none" xmlns="http://www.w3.org/2000/svg">
<path d="M13 9V25M13 9C11.9391 9 10.9217 8.57857 10.1716 7.82843C9.42143 7.07828 9 6.06087 9 5C9 3.93913 9.42143 2.92172 10.1716 2.17157C10.9217 1.42143 11.9391 1 13 1C14.0609 1 15.0783 1.42143 15.8284 2.17157C16.5786 2.92172 17 3.93913 17 5C17 6.06087 16.5786 7.07828 15.8284 7.82843C15.0783 8.57857 14.0609 9 13 9ZM23.6667 14.3333C23.6667 17.1623 22.5429 19.8754 20.5425 21.8758C18.5421 23.8762 15.829 25 13 25C10.171 25 7.45792 23.8762 5.45753 21.8758C3.45714 19.8754 2.33333 17.1623 2.33333 14.3333M25 14.3333H22.3333M3.66667 14.3333H1" stroke="black" stroke-width="2" stroke-linecap="round" stroke-linejoin="round"/>
</svg>
