<svg width="26" height="25" viewBox="0 0 26 25" fill="none" xmlns="http://www.w3.org/2000/svg">
<path d="M15.3578 20.8994C14.5805 21.0468 13.7911 21.1204 13 21.1195C7.36907 21.1195 2.60327 17.4187 1 12.3172C1.43234 10.9445 2.09714 9.65612 2.96542 8.50833M15.6658 14.983L10.3317 9.65011C11.0392 8.94259 11.9988 8.54511 12.9994 8.54511C14 8.54511 14.9596 8.94259 15.6671 9.65011C16.3746 10.3576 16.7721 11.3172 16.7721 12.3178C16.7721 13.3184 16.3746 14.278 15.6671 14.9855L19.8054 19.1226M10.3342 9.65137L6.19711 5.5143M6.19711 5.5143L1.6828 1M6.19711 5.5143C8.2245 4.2058 10.587 3.51145 13 3.51493C18.6309 3.51493 23.3967 7.21566 25 12.3172C24.1143 15.1217 22.2764 17.5285 19.8042 19.1213L24.3172 23.6344" stroke="black" stroke-width="2" stroke-linecap="round" stroke-linejoin="round"/>
</svg>
