<svg width="26" height="26" viewBox="0 0 26 26" fill="none" xmlns="http://www.w3.org/2000/svg">
<path d="M25 7.74965C25 7.02965 24.52 6.30965 24.04 5.94965L16.48 1.26965C16.1691 1.09292 15.8176 1 15.46 1C15.1024 1 14.7509 1.09292 14.44 1.26965L2.08 8.46965C1.48 8.70965 1 9.42965 1 10.1496V18.0696C1 18.6696 1.48 19.5096 1.96 19.8696L9.52 24.5497C9.8309 24.7264 10.1824 24.8193 10.54 24.8193C10.8976 24.8193 11.2491 24.7264 11.56 24.5497L23.92 17.3496C24.52 16.9896 25 16.1496 25 15.5496V7.74965Z" stroke="currentColor" stroke-width="2" stroke-linecap="round" stroke-linejoin="round"/>
<path d="M10.6001 24.7897V15.3097M10.6001 15.3097L1.12012 9.42966M10.6001 15.3097L24.8801 7.02966M15.4001 22.2697V12.5497M20.2001 19.5097V9.78966" stroke="currentColor" stroke-width="2" stroke-linecap="round" stroke-linejoin="round"/>
</svg>
