<svg width="24" height="26" viewBox="0 0 24 26" fill="none" xmlns="http://www.w3.org/2000/svg">
<path d="M21 6.33333L19.844 22.5227C19.7961 23.1954 19.4951 23.8251 19.0015 24.2848C18.5079 24.7444 17.8585 25 17.184 25H6.14933C5.47485 25 4.82542 24.7444 4.33185 24.2848C3.83827 23.8251 3.53722 23.1954 3.48933 22.5227L2.33333 6.33333M9 11.6667V19.6667M14.3333 11.6667V19.6667M15.6667 6.33333V2.33333C15.6667 1.97971 15.5262 1.64057 15.2761 1.39052C15.0261 1.14048 14.687 1 14.3333 1H9C8.64638 1 8.30724 1.14048 8.05719 1.39052C7.80714 1.64057 7.66667 1.97971 7.66667 2.33333V6.33333M1 6.33333H22.3333" stroke="black" stroke-width="2" stroke-linecap="round" stroke-linejoin="round"/>
</svg>
