<svg width="26" height="21" viewBox="0 0 26 21" fill="none" xmlns="http://www.w3.org/2000/svg">
<path d="M9.00008 17C9.00008 17.7073 8.71913 18.3856 8.21903 18.8857C7.71894 19.3858 7.04066 19.6667 6.33341 19.6667C5.62617 19.6667 4.94789 19.3858 4.4478 18.8857C3.9477 18.3856 3.66675 17.7073 3.66675 17C3.66675 16.2928 3.9477 15.6145 4.4478 15.1144C4.94789 14.6143 5.62617 14.3334 6.33341 14.3334C7.04066 14.3334 7.71894 14.6143 8.21903 15.1144C8.71913 15.6145 9.00008 16.2928 9.00008 17ZM22.3334 17C22.3334 17.7073 22.0525 18.3856 21.5524 18.8857C21.0523 19.3858 20.374 19.6667 19.6667 19.6667C18.9595 19.6667 18.2812 19.3858 17.7811 18.8857C17.281 18.3856 17.0001 17.7073 17.0001 17C17.0001 16.2928 17.281 15.6145 17.7811 15.1144C18.2812 14.6143 18.9595 14.3334 19.6667 14.3334C20.374 14.3334 21.0523 14.6143 21.5524 15.1144C22.0525 15.6145 22.3334 16.2928 22.3334 17Z" stroke="black" stroke-width="2" stroke-linecap="round" stroke-linejoin="round"/>
<path d="M14.3333 15.6667V2.33333C14.3333 1.97971 14.1929 1.64057 13.9428 1.39052C13.6928 1.14048 13.3536 1 13 1H2.33333C1.97971 1 1.64057 1.14048 1.39052 1.39052C1.14048 1.64057 1 1.97971 1 2.33333V15.6667C1 16.0203 1.14048 16.3594 1.39052 16.6095C1.64057 16.8595 1.97971 17 2.33333 17H3.66667M14.3333 15.6667C14.3333 16.0203 14.1929 16.3594 13.9428 16.6095C13.6928 16.8595 13.3536 17 13 17H9M14.3333 15.6667V5C14.3333 4.64638 14.4738 4.30724 14.7239 4.05719C14.9739 3.80714 15.313 3.66667 15.6667 3.66667H19.1147C19.4683 3.66674 19.8073 3.80727 20.0573 4.05733L24.6093 8.60933C24.8594 8.85932 24.9999 9.19841 25 9.552V15.6667C25 16.0203 24.8595 16.3594 24.6095 16.6095C24.3594 16.8595 24.0203 17 23.6667 17H22.3333M14.3333 15.6667C14.3333 16.0203 14.4738 16.3594 14.7239 16.6095C14.9739 16.8595 15.313 17 15.6667 17H17M9 17C9 16.2928 8.71905 15.6145 8.21895 15.1144C7.71885 14.6143 7.04058 14.3333 6.33333 14.3333C5.62609 14.3333 4.94781 14.6143 4.44772 15.1144C3.94762 15.6145 3.66667 16.2928 3.66667 17C3.66667 17.7072 3.94762 18.3855 4.44772 18.8856C4.94781 19.3857 5.62609 19.6667 6.33333 19.6667C7.04058 19.6667 7.71885 19.3857 8.21895 18.8856C8.71905 18.3855 9 17.7072 9 17ZM22.3333 17C22.3333 17.7072 22.0524 18.3855 21.5523 18.8856C21.0522 19.3857 20.3739 19.6667 19.6667 19.6667C18.9594 19.6667 18.2811 19.3857 17.781 18.8856C17.281 18.3855 17 17.7072 17 17M22.3333 17C22.3333 16.2928 22.0524 15.6145 21.5523 15.1144C21.0522 14.6143 20.3739 14.3333 19.6667 14.3333C18.9594 14.3333 18.2811 14.6143 17.781 15.1144C17.281 15.6145 17 16.2928 17 17" stroke="black" stroke-width="2" stroke-linecap="round" stroke-linejoin="round"/>
</svg>
