<svg width="26" height="26" viewBox="0 0 26 26" fill="none" xmlns="http://www.w3.org/2000/svg">
<path d="M23.5 19V23.5C23.5 23.8978 23.342 24.2794 23.0607 24.5607C22.7794 24.842 22.3978 25 22 25H4C3.20435 25 2.44129 24.6839 1.87868 24.1213C1.31607 23.5587 1 22.7956 1 22V4C1 3.20435 1.31607 2.44129 1.87868 1.87868C2.44129 1.31607 3.20435 1 4 1H19C19.3978 1 19.7794 1.15804 20.0607 1.43934C20.342 1.72064 20.5 2.10218 20.5 2.5V7M1 4C1 4.79565 1.31607 5.55871 1.87868 6.12132C2.44129 6.68393 3.20435 7 4 7H22C22.3978 7 22.7794 7.15804 23.0607 7.43934C23.342 7.72064 23.5 8.10218 23.5 8.5V13" stroke="black" stroke-width="2" stroke-linecap="round" stroke-linejoin="round"/>
<path d="M25 13V19H19C18.2044 19 17.4413 18.6839 16.8787 18.1213C16.3161 17.5587 16 16.7956 16 16C16 15.2044 16.3161 14.4413 16.8787 13.8787C17.4413 13.3161 18.2044 13 19 13H25Z" stroke="black" stroke-width="2" stroke-linecap="round" stroke-linejoin="round"/>
</svg>
