<svg width="26" height="21" viewBox="0 0 26 21" fill="none" xmlns="http://www.w3.org/2000/svg">
<path d="M1 14.8462L7.34954 8.49662C7.60669 8.23946 7.91197 8.03548 8.24795 7.89631C8.58393 7.75714 8.94403 7.68551 9.30769 7.68551C9.67136 7.68551 10.0315 7.75714 10.3674 7.89631C10.7034 8.03548 11.0087 8.23946 11.2658 8.49662L17.6154 14.8462M15.7692 13L17.5034 11.2658C17.7605 11.0087 18.0658 10.8047 18.4018 10.6655C18.7378 10.5264 19.0979 10.4547 19.4615 10.4547C19.8252 10.4547 20.1853 10.5264 20.5213 10.6655C20.8573 10.8047 21.1625 11.0087 21.4197 11.2658L25 14.8462M2.84615 19.4615H23.1538C23.6435 19.4615 24.1131 19.267 24.4593 18.9208C24.8055 18.5746 25 18.105 25 17.6154V2.84615C25 2.35652 24.8055 1.88695 24.4593 1.54073C24.1131 1.1945 23.6435 1 23.1538 1H2.84615C2.35652 1 1.88695 1.1945 1.54073 1.54073C1.19451 1.88695 1 2.35652 1 2.84615V17.6154C1 18.105 1.19451 18.5746 1.54073 18.9208C1.88695 19.267 2.35652 19.4615 2.84615 19.4615ZM15.7692 5.61538H15.7791V5.62523H15.7692V5.61538ZM16.2308 5.61538C16.2308 5.73779 16.1821 5.85519 16.0956 5.94174C16.009 6.0283 15.8916 6.07692 15.7692 6.07692C15.6468 6.07692 15.5294 6.0283 15.4429 5.94174C15.3563 5.85519 15.3077 5.73779 15.3077 5.61538C15.3077 5.49298 15.3563 5.37558 15.4429 5.28903C15.5294 5.20247 15.6468 5.15385 15.7692 5.15385C15.8916 5.15385 16.009 5.20247 16.0956 5.28903C16.1821 5.37558 16.2308 5.49298 16.2308 5.61538Z" stroke="black" stroke-width="2" stroke-linecap="round" stroke-linejoin="round"/>
</svg>
