<svg width="26" height="20" viewBox="0 0 26 20" fill="none" xmlns="http://www.w3.org/2000/svg">
<path d="M16.7729 9.80319C16.7729 10.8038 16.3754 11.7634 15.6679 12.471C14.9603 13.1785 14.0007 13.576 13.0001 13.576C11.9995 13.576 11.0399 13.1785 10.3323 12.471C9.62478 11.7634 9.22729 10.8038 9.22729 9.80319C9.22729 8.80258 9.62478 7.84296 10.3323 7.13542C11.0399 6.42788 11.9995 6.0304 13.0001 6.0304C14.0007 6.0304 14.9603 6.42788 15.6679 7.13542C16.3754 7.84296 16.7729 8.80258 16.7729 9.80319Z" stroke="currentColor" stroke-width="2" stroke-linecap="round" stroke-linejoin="round"/>
<path d="M1 9.80319C2.60218 4.70111 7.36973 1 13 1C18.6315 1 23.3978 4.70111 25 9.80319C23.3978 14.9053 18.6315 18.6064 13 18.6064C7.36848 18.6064 2.60218 14.9053 1 9.80319Z" stroke="currentColor" stroke-width="2" stroke-linecap="round" stroke-linejoin="round"/>
</svg>
