<svg width="26" height="24" viewBox="0 0 26 24" fill="none" xmlns="http://www.w3.org/2000/svg">
<path d="M1 7.66667C1 6.95942 1.28095 6.28115 1.78105 5.78105C2.28115 5.28095 2.95942 5 3.66667 5H4.90667C5.34558 5.00007 5.77772 4.89179 6.16475 4.68479C6.55179 4.47778 6.88174 4.17844 7.12533 3.81333L8.208 2.18667C8.4516 1.82156 8.78155 1.52222 9.16858 1.31521C9.55561 1.10821 9.98775 0.999934 10.4267 1H15.5733C16.0122 0.999934 16.4444 1.10821 16.8314 1.31521C17.2185 1.52222 17.5484 1.82156 17.792 2.18667L18.8747 3.81333C19.1183 4.17844 19.4482 4.47778 19.8352 4.68479C20.2223 4.89179 20.6544 5.00007 21.0933 5H22.3333C23.0406 5 23.7189 5.28095 24.219 5.78105C24.719 6.28115 25 6.95942 25 7.66667V19.6667C25 20.3739 24.719 21.0522 24.219 21.5523C23.7189 22.0524 23.0406 22.3333 22.3333 22.3333H3.66667C2.95942 22.3333 2.28115 22.0524 1.78105 21.5523C1.28095 21.0522 1 20.3739 1 19.6667V7.66667Z" stroke="black" stroke-width="2" stroke-linecap="round" stroke-linejoin="round"/>
<path d="M17 13C17 14.0609 16.5786 15.0783 15.8284 15.8284C15.0783 16.5786 14.0609 17 13 17C11.9391 17 10.9217 16.5786 10.1716 15.8284C9.42143 15.0783 9 14.0609 9 13C9 11.9391 9.42143 10.9217 10.1716 10.1716C10.9217 9.42143 11.9391 9 13 9C14.0609 9 15.0783 9.42143 15.8284 10.1716C16.5786 10.9217 17 11.9391 17 13Z" stroke="black" stroke-width="2" stroke-linecap="round" stroke-linejoin="round"/>
</svg>
