<svg width="14" height="26" viewBox="0 0 14 26" fill="none" xmlns="http://www.w3.org/2000/svg">
<path d="M0.600098 6.59998C0.600098 5.00868 1.23224 3.48255 2.35746 2.35733C3.48268 1.23212 5.0088 0.599976 6.6001 0.599976C8.1914 0.599976 9.71752 1.23212 10.8427 2.35733C11.968 3.48255 12.6001 5.00868 12.6001 6.59998V18.6C12.6001 20.1913 11.968 21.7174 10.8427 22.8426C9.71752 23.9678 8.1914 24.6 6.6001 24.6C5.0088 24.6 3.48268 23.9678 2.35746 22.8426C1.23224 21.7174 0.600098 20.1913 0.600098 18.6V6.59998Z" stroke="black" stroke-width="1.2" stroke-linecap="round" stroke-linejoin="round"/>
<path d="M5.40015 6.60002C5.40015 6.91828 5.52657 7.22351 5.75162 7.44855C5.97666 7.6736 6.28189 7.80002 6.60015 7.80002C6.91841 7.80002 7.22363 7.6736 7.44867 7.44855C7.67372 7.22351 7.80015 6.91828 7.80015 6.60002C7.80015 6.28176 7.67372 5.97654 7.44867 5.7515C7.22363 5.52645 6.91841 5.40002 6.60015 5.40002C6.28189 5.40002 5.97666 5.52645 5.75162 5.7515C5.52657 5.97654 5.40015 6.28176 5.40015 6.60002ZM5.40015 12.6C5.40015 12.9183 5.52657 13.2235 5.75162 13.4486C5.97666 13.6736 6.28189 13.8 6.60015 13.8C6.91841 13.8 7.22363 13.6736 7.44867 13.4486C7.67372 13.2235 7.80015 12.9183 7.80015 12.6C7.80015 12.2818 7.67372 11.9765 7.44867 11.7515C7.22363 11.5265 6.91841 11.4 6.60015 11.4C6.28189 11.4 5.97666 11.5265 5.75162 11.7515C5.52657 11.9765 5.40015 12.2818 5.40015 12.6ZM5.40015 18.6C5.40015 18.9183 5.52657 19.2235 5.75162 19.4486C5.97666 19.6736 6.28189 19.8 6.60015 19.8C6.91841 19.8 7.22363 19.6736 7.44867 19.4486C7.67372 19.2235 7.80015 18.9183 7.80015 18.6C7.80015 18.2818 7.67372 17.9765 7.44867 17.7515C7.22363 17.5265 6.91841 17.4 6.60015 17.4C6.28189 17.4 5.97666 17.5265 5.75162 17.7515C5.52657 17.9765 5.40015 18.2818 5.40015 18.6Z" stroke="black" stroke-width="1.2" stroke-linecap="round" stroke-linejoin="round"/>
</svg>
