<?xml version="1.0" encoding="utf-8" ?><svg xmlns="http://www.w3.org/2000/svg" xmlns:xlink="http://www.w3.org/1999/xlink" width="178" height="135" viewBox="0 0 178 135"><style>path{fill:#0E2846}</style><path d="M86.2509 18.8012C90.7034 18.5498 94.6561 19.877 97.4286 23.5582C99.2912 26.08 100.088 29.233 99.646 32.3368C98.9917 36.9661 96.3802 39.0884 92.9648 41.6551C93.0006 43.6419 93.0228 45.6289 93.0313 47.616C95.4214 47.7609 98.8149 47.6273 101.277 47.6208C104.945 47.611 109.088 47.7822 112.689 47.5167C112.665 49.4353 112.713 51.4595 112.726 53.3875C103.8 55.7403 95.9913 56.8752 87.9776 62.1284C80.6178 66.953 76.0131 72.0742 74.3357 80.8078C74.0444 82.5109 74.037 84.304 73.9828 86.0347C69.2969 77.9752 71.158 69.0887 77.2843 62.4648C79.1083 60.4927 81.321 58.6146 82.9074 56.4745C79.3277 55.8757 67.3018 56.0081 63.4771 56.3574C63.4821 53.4854 63.4249 50.6137 63.3057 47.7442C69.7878 47.6081 76.2717 47.576 82.7549 47.6478C82.4635 45.2924 82.5372 43.8639 82.6298 41.5007C82.5271 41.4419 82.4256 41.3811 82.3253 41.3182C79.4173 39.5018 76.908 36.6049 76.1476 33.2035C75.4801 30.134 76.0529 26.925 77.7413 24.276C79.9234 20.8624 82.5315 19.6383 86.2509 18.8012ZM82.8457 30.8704C82.9172 32.2873 83.5877 33.6069 84.6899 34.5001C85.7922 35.3932 87.2222 35.7755 88.6231 35.5516C91.3648 35.1134 93.2231 32.5235 92.7601 29.7858C92.2971 27.0481 89.6904 25.2134 86.957 25.7013C84.4805 26.1433 82.719 28.358 82.8457 30.8704Z"/><path d="M92.944 64.2022C93.8639 65.6296 93.2538 69.3569 93.5122 71.1252C94.7091 79.3128 89.4784 101.426 103.666 99.0621C111.894 97.6912 117.99 90.357 122.467 84.128C121.312 83.5477 118.567 82.3526 117.816 81.5493C118.525 80.2124 130.496 70.8858 132.483 69.2581C131.753 74.4405 132.903 84.2909 132.272 89.7826L131.826 90.0593C130.77 89.1748 129.02 87.9665 127.868 87.1186C125.001 94.0563 118.174 102.235 111.852 106.142C109.093 107.847 101.735 112.394 98.5264 111.571C93.5552 110.295 88.5447 105.471 85.8627 101.293C81.4753 94.4586 81.6675 90.2876 82.0253 82.5836C82.1188 80.5697 81.8851 76.8181 82.3656 74.9721C83.5011 70.61 89.3991 66.4293 92.944 64.2022Z"/><path d="M43.4059 69.9243C44.1835 69.9482 56.6142 80.1078 58.4853 81.4897C56.6529 82.3946 55.1297 83.2736 53.3681 84.3111C59.1219 92.3153 67.2922 101.389 78.2445 98.9002C79.2073 100.168 80.5671 102.609 81.6334 104.09C85.3437 109.242 88.6419 111.691 93.8836 114.877L91.4755 116.953C89.9567 118.511 88.9555 120.067 87.7367 121.85C82.273 111.654 71.2333 111.891 62.5244 105.276C54.7075 99.3383 52.1455 95.4809 47.7737 87.1863C46.3919 88.3027 44.9936 89.2353 43.5285 90.2359C43.3874 83.5089 43.5625 76.7013 43.4059 69.9243Z"/></svg>
