<?xml version="1.0" encoding="utf-8" ?><svg xmlns="http://www.w3.org/2000/svg" xmlns:xlink="http://www.w3.org/1999/xlink" width="343" height="343" viewBox="0 0 343 343"><style>path{fill:#0F2847}@media(prefers-color-scheme:dark){path{fill:#ffffff}}</style><path d="M169.72 106.797C170.675 106.759 171.684 106.697 172.612 106.794C180.445 107.612 183.899 116.933 178.499 122.662C177.56 123.657 176.629 124.372 175.579 125.201C175.578 126.814 175.611 128.426 175.676 130.037C178.282 130.019 190.315 129.307 191.55 130.76C191.614 131.889 191.78 133.016 191.461 134.077C191.097 134.502 190.537 134.817 189.985 134.925C177.745 137.323 165.327 142.144 160.873 154.899C160.302 156.729 160.743 158.681 159.91 159.606C156.507 157.561 158.954 144.842 162.353 142.605C163.477 141.866 166.407 138.654 166.902 137.556L166.724 137.218C164.948 136.377 154.324 136.791 151.961 137.035C151.979 134.727 151.97 132.42 151.934 130.112C156.122 129.79 162.953 130.009 167.302 130.042C167.302 128.472 167.438 126.619 167.514 125.029C164.897 123.502 163.059 121.533 162.214 118.548C161.562 116.19 161.882 113.67 163.103 111.55C164.683 108.745 166.771 107.65 169.72 106.797ZM172.631 120.071C174.8 119.448 176.058 117.189 175.445 115.017C174.832 112.846 172.579 111.578 170.404 112.181C168.217 112.789 166.939 115.059 167.556 117.244C168.173 119.429 170.449 120.697 172.631 120.071Z"/><path d="M175.593 143.507C175.607 143.513 175.623 143.515 175.634 143.524C176.721 144.458 175.945 162.609 176.421 165.693C176.713 167.581 177.537 169.365 179.124 170.499C180.793 171.692 182.825 171.932 184.804 171.565C191.182 170.384 196.113 164.4 199.642 159.373C198.533 158.993 196.208 158.441 196.152 157.11C197.493 155.459 205.429 149.255 207.521 147.629C207.164 150.808 207.952 162.816 207.08 164.235C206.033 163.372 205.01 162.706 203.888 161.957C200.607 168.644 196.22 174.022 189.861 177.935C187.453 179.408 182.354 182.311 179.603 181.499C173.927 179.557 168.562 173.005 167.232 167.252C166.554 164.316 166.789 160.94 166.797 157.976C166.801 156.118 166.771 153.367 167.238 151.675C168.13 148.443 172.972 145.032 175.593 143.507Z"/><path d="M232.486 202.937C237.495 203.801 242.995 202.362 248.218 203.85C256.289 206.149 257.581 216.689 249.834 220.538C251.259 222.692 254.174 226.959 255.898 228.649L251.564 228.313L248.439 228.407C246.91 226.19 245.124 223.79 243.854 221.45C242.096 221.537 240.338 221.515 238.579 221.51C238.797 223.547 238.727 226.444 238.732 228.562C236.066 228.253 234.97 228.344 232.318 228.538C232.381 222.732 232.388 216.926 232.338 211.12C232.335 209.285 232.205 204.572 232.486 202.937ZM238.538 216.479C241.046 216.53 245.227 216.994 247.143 215.577C248.058 214.277 248.343 213.884 248.93 212.427C248.216 210.68 247.882 210.185 246.495 208.878C243.542 207.988 241.643 208.192 238.584 208.236C238.669 210.425 238.855 214.352 238.538 216.479Z"/><path d="M135.645 148.018C136.491 148.209 146.266 156.305 147.131 157.397C146.752 158.235 144.29 159.043 143.395 159.386C147.362 164.95 155.74 174.487 163.381 171.439C164.353 172.398 165.634 174.412 166.46 175.603C169.363 179.784 172.081 181.816 176.326 184.316L174.491 186.077C173.043 187.336 172.378 188.431 171.407 190.062C168.144 183.527 161.794 182.312 155.889 179.455C153.608 178.326 151.456 176.954 149.469 175.363C144.392 171.313 142.003 167.48 139.117 161.807C138.373 162.42 136.939 163.778 136.122 163.915C135.485 162.189 135.796 151.103 135.645 148.018Z"/><path d="M148.954 203.001C151.354 203.119 152.878 203.139 155.272 203.002C155.213 205.037 155.228 207.185 155.209 209.231C155.249 212.888 155.478 217.674 154.814 221.188C153.368 228.83 142.904 230.797 136.945 227.342C134.603 225.998 132.908 223.76 132.247 221.142C131.8 219.349 131.243 204.602 131.932 203.61C132.263 203.134 132.962 203.176 133.503 203.098C135.42 203.147 136.598 203.15 138.533 202.996C138.342 206.365 138.247 217.936 138.733 220.822C138.983 221.113 139.238 221.4 139.498 221.682C141.427 223.771 145.312 224.393 147.05 222.29C150.121 218.576 149.02 207.639 148.954 203.001Z"/><path d="M207.813 203.115C214.272 203.218 220.733 203.197 227.191 203.052C227.218 204.749 227.262 206.445 227.323 208.141C223.217 208.338 217.856 208.266 213.723 208.193C213.817 210.171 213.841 211.48 213.747 213.466C215.718 213.331 223.974 213.14 225.501 213.627C225.776 214.65 225.72 217.036 225.734 218.2C222.18 218.06 218.5 218.05 214.939 218.007L214.249 218.053C213.549 218.718 213.822 222.216 213.762 223.542C217.126 223.528 224.607 223.68 227.566 223.295C227.492 224.965 227.583 226.742 227.634 228.421C223.076 228.063 211.653 227.81 207.134 228.468C207.641 220.811 207.156 212.529 207.26 204.829C207.274 203.767 207.214 203.68 207.813 203.115Z"/><path d="M168.639 202.85C171.355 202.129 177.009 203.529 179.742 204.58C179.108 206.109 178.587 208.082 177.69 209.405C177.158 209.514 175.984 209.087 175.46 208.795C172.968 207.403 166.56 206.717 165.641 210.485C166.167 213.157 173.097 213.55 175.294 214.531C177.728 215.619 177.808 215.663 179.864 217.541C182.532 225.619 176.956 228.086 170.085 228.958C165.888 228.687 163.106 228.312 159.288 226.405C159.84 224.712 160.355 223.063 161.235 221.513C164.408 222.946 169.285 225.336 172.665 223.456C173.548 222.966 174.067 222.57 174.351 221.591C173.299 217.712 160.153 218.895 159.586 212.084C159.082 206.025 163.132 203.388 168.639 202.85Z"/><path d="M87.1425 203.029C91.0712 203.283 102.825 203.376 106.643 202.943C106.584 204.973 106.558 206.068 106.779 208.113C102.253 208.233 97.7261 208.26 93.1996 208.194C93.3629 210.444 93.4149 212.583 93.4704 214.837C95.1951 214.722 104.283 214.429 105.308 215.049C105.149 216.593 105.221 217.788 105.282 219.322C101.237 219.223 97.1884 219.262 93.1452 219.44C93.4583 222.551 93.4613 225.184 93.4954 228.303C91.3408 228.206 88.9545 228.27 86.7795 228.288C86.8481 226.942 86.8227 222.573 86.9458 221.539C87.2564 218.929 86.4072 204.445 87.1425 203.029Z"/><path d="M181.874 203.112C186.9 203.172 199.749 203.502 204.224 202.954L204.486 208.214C201.673 208.204 198.859 208.216 196.045 208.25C196.339 210.953 196.224 217.142 196.238 220.08C196.232 222.84 196.214 225.485 196.371 228.247C193.944 228.235 191.675 228.213 189.251 228.363C189.766 222.28 189.414 214.471 189.554 208.167C186.817 208.224 184.079 208.258 181.342 208.272C181.474 206.679 181.131 204.088 181.874 203.112Z"/><path d="M110.432 203.011C112.335 203.093 114.284 203.274 116.146 202.921C116.831 203.587 116.804 203.839 116.785 204.876C116.69 209.97 116.94 215.27 116.746 220.348C116.817 220.967 116.746 222.48 116.731 223.175C121.004 223.149 125.277 223.178 129.549 223.261C129.441 225.262 129.488 226.243 129.807 228.21C124.037 228.213 115.938 228.001 110.437 228.549C110.74 220.921 110.589 210.723 110.432 203.011Z"/></svg>
